<svg width="31" height="31" viewBox="0 0 31 31" fill="none" xmlns="http://www.w3.org/2000/svg">
<path d="M19.3752 29.3858H11.6252C4.61141 29.3858 1.61475 26.3892 1.61475 19.3754V11.6254C1.61475 4.61166 4.61141 1.61499 11.6252 1.61499H19.3752C26.3889 1.61499 29.3856 4.61166 29.3856 11.6254V19.3754C29.3856 26.3892 26.3889 29.3858 19.3752 29.3858ZM11.6252 3.55249C5.67058 3.55249 3.55225 5.67082 3.55225 11.6254V19.3754C3.55225 25.33 5.67058 27.4483 11.6252 27.4483H19.3752C25.3297 27.4483 27.4481 25.33 27.4481 19.3754V11.6254C27.4481 5.67082 25.3297 3.55249 19.3752 3.55249H11.6252Z" fill="white"/>
<path d="M15.0835 13.8336L15.0835 8.00024L8.00016 8.00024V13.8336H15.0835Z" stroke="white" stroke-width="1.58333" stroke-linejoin="round"/>
<path d="M23 23.0008V17.1675H15.9167V23.0008H23Z" stroke="white" stroke-width="1.58333" stroke-linejoin="round"/>
<path d="M18.4165 7.99992V13.8333H22.9998V7.99992H18.4165Z" stroke="white" stroke-width="1.58333" stroke-linejoin="round"/>
<path d="M8 17.1669V23.0002H12.5833V17.1669H8Z" stroke="white" stroke-width="1.58333" stroke-linejoin="round"/>
</svg>
