<svg width="55" height="62" viewBox="0 0 55 62" fill="none" xmlns="http://www.w3.org/2000/svg">
<path fill-rule="evenodd" clip-rule="evenodd" d="M43.1646 21.98C45.0779 24.4635 46.1405 27.448 46.2371 30.5655C46.3274 34.0077 45.2773 37.3014 43.1646 40.0416L54.6973 51.4785L54.0585 52.1558C51.1543 55.2393 47.6206 57.7382 43.6631 59.4423C39.849 61.0876 35.6454 62 31.2329 62C22.6075 62 14.7985 58.53 9.14894 52.9197C3.49629 47.3095 0 39.5591 0 31.0015C0 22.444 3.49629 14.6905 9.14894 9.08026C14.7985 3.47005 22.6075 0 31.2329 0C35.6422 0 39.8428 0.912356 43.6569 2.5546C47.6175 4.26178 51.1512 6.75762 54.0523 9.83798L54.6911 10.5153L43.1646 21.98ZM41.8838 41.4952C39.0731 44.3034 35.393 45.8157 31.4698 45.8869C29.5596 45.9116 27.7678 45.5312 26.0539 44.6652C24.4772 43.8704 24.4273 41.5261 26.2845 41.2849C28.0109 41.0622 29.8057 40.4344 31.1644 39.6426C32.1802 40.2364 34.6389 40.9942 36.0442 41.2942C37.5898 40.688 39.1323 39.6365 40.2385 38.3901C38.6088 39.0148 34.2743 38.2076 32.7411 37.3819L32.7474 33.986L35.9975 30.8129C33.355 30.8129 30.7125 30.8129 28.0669 30.8129C28.0669 28.3387 28.0669 26.381 28.0669 24.1388C28.0669 22.9635 27.1851 21.9893 26.0072 21.8656L19.9401 21.2254C22.8755 17.8853 27.1103 16.0327 31.5757 16.1255C35.4989 16.2338 39.1136 17.7616 41.8838 20.5265L51.9832 10.4844C49.3875 7.89575 46.3056 5.79269 42.8872 4.32055C39.3255 2.78346 35.3836 1.92986 31.2329 1.92986C23.1435 1.92986 15.8237 5.18342 10.5232 10.4442C5.22263 15.7049 1.94446 22.9728 1.94446 31.0015C1.94446 39.0303 5.22263 46.2982 10.5232 51.5589C15.8237 56.8197 23.1466 60.0732 31.2329 60.0732C35.3805 60.0732 39.3224 59.2196 42.8872 57.6825C46.3087 56.2073 49.3906 54.1012 51.9863 51.5156L41.8838 41.4952ZM42.4759 21.3089L42.4198 21.2533L37.9949 21.8285C36.842 21.98 35.9912 22.9419 35.9912 24.0955C35.9912 25.28 35.9912 26.4645 35.9912 27.6521C37.836 25.8212 40.6125 23.1584 42.4759 21.3089ZM23.7199 32.3747C18.6562 32.1242 20.1395 37.6107 21.9967 38.3746C23.6265 39.0086 28.0514 38.2107 29.5907 37.3819C29.5907 36.1757 29.5938 34.8303 29.5938 33.9891L27.9392 32.3747H23.7199V32.3747ZM24.5582 29.6253V25.1254L18.703 24.5099C18.7061 27.3552 21.8596 29.6253 24.5582 29.6253Z" fill="white"/>
</svg>
